<?xml version="1.0" encoding="UTF-8"?><svg id="Layer_2" xmlns="http://www.w3.org/2000/svg" viewBox="0 0 77.11 304.34"><defs><style>.cls-1{fill:#231f20;}</style></defs><g id="Layer_1-2"><g><path class="cls-1" d="M57.96,280l-17.06,12.02h17.06v12.31H4.68v-12.31h29.23l-16.13-12.02v-14.47l20.09,16.2,20.09-16.56v14.83Z"/><path class="cls-1" d="M19.76,231.08c1.66-2.62,4.03-4.68,7.13-6.19,3.1-1.51,6.76-2.27,10.98-2.27s7.82,.76,10.94,2.27c3.12,1.51,5.51,3.58,7.16,6.19,1.66,2.62,2.48,5.58,2.48,8.89,0,3.07-.7,5.71-2.09,7.92-1.39,2.21-3.29,3.82-5.69,4.82h26.42v12.31H17.78v-12.31h7.27c-2.4-1.01-4.3-2.62-5.69-4.82-1.39-2.21-2.09-4.85-2.09-7.92,0-3.31,.83-6.27,2.48-8.89Zm10.94,19.22c1.75,1.66,4.14,2.48,7.16,2.48s5.35-.83,7.13-2.48c1.78-1.66,2.66-3.78,2.66-6.37s-.86-4.76-2.59-6.37c-1.73-1.61-4.13-2.41-7.2-2.41s-5.47,.8-7.2,2.41c-1.73,1.61-2.59,3.73-2.59,6.37s.88,4.72,2.63,6.37Z"/><path class="cls-1" d="M19.76,191.05c1.66-3.14,4.04-5.62,7.16-7.42,3.12-1.8,6.77-2.7,10.94-2.7s7.82,.9,10.94,2.7c3.12,1.8,5.51,4.27,7.16,7.42,1.66,3.14,2.48,6.71,2.48,10.69s-.83,7.56-2.48,10.73c-1.66,3.17-4.04,5.65-7.16,7.45-3.12,1.8-6.77,2.7-10.94,2.7s-7.82-.9-10.94-2.7c-3.12-1.8-5.51-4.28-7.16-7.45-1.66-3.17-2.48-6.74-2.48-10.73s.83-7.55,2.48-10.69Zm10.73,16.63c1.7,1.61,4.16,2.41,7.38,2.41s5.66-.8,7.34-2.41c1.68-1.61,2.52-3.59,2.52-5.94s-.84-4.32-2.52-5.9c-1.68-1.58-4.13-2.38-7.34-2.38s-5.68,.79-7.38,2.38c-1.7,1.58-2.56,3.55-2.56,5.9s.85,4.33,2.56,5.94Z"/><path class="cls-1" d="M19.76,144.9c1.66-2.62,4.03-4.68,7.13-6.19,3.1-1.51,6.76-2.27,10.98-2.27s7.82,.76,10.94,2.27c3.12,1.51,5.51,3.58,7.16,6.19,1.66,2.62,2.48,5.58,2.48,8.89,0,3.07-.7,5.71-2.09,7.92-1.39,2.21-3.29,3.82-5.69,4.82h26.42v12.31H17.78v-12.31h7.27c-2.4-1.01-4.3-2.62-5.69-4.82-1.39-2.21-2.09-4.85-2.09-7.92,0-3.31,.83-6.27,2.48-8.89Zm10.94,19.22c1.75,1.66,4.14,2.48,7.16,2.48s5.35-.83,7.13-2.48c1.78-1.66,2.66-3.78,2.66-6.37s-.86-4.76-2.59-6.37c-1.73-1.61-4.13-2.41-7.2-2.41s-5.47,.8-7.2,2.41c-1.73,1.61-2.59,3.73-2.59,6.37s.88,4.72,2.63,6.37Z"/><path class="cls-1" d="M19.76,100.4c1.66-2.62,4.03-4.68,7.13-6.19,3.1-1.51,6.76-2.27,10.98-2.27s7.82,.76,10.94,2.27c3.12,1.51,5.51,3.58,7.16,6.19,1.66,2.62,2.48,5.58,2.48,8.89,0,3.07-.7,5.71-2.09,7.92-1.39,2.21-3.29,3.82-5.69,4.82h26.42v12.31H17.78v-12.31h7.27c-2.4-1.01-4.3-2.62-5.69-4.82-1.39-2.21-2.09-4.85-2.09-7.92,0-3.31,.83-6.28,2.48-8.89Zm10.94,19.22c1.75,1.66,4.14,2.48,7.16,2.48s5.35-.83,7.13-2.48c1.78-1.66,2.66-3.78,2.66-6.37s-.86-4.76-2.59-6.37c-1.73-1.61-4.13-2.41-7.2-2.41s-5.47,.8-7.2,2.41c-1.73,1.61-2.59,3.73-2.59,6.37s.88,4.72,2.63,6.37Z"/><path class="cls-1" d="M1.84,88.99c-1.22-1.34-1.84-3.12-1.84-5.33s.61-3.98,1.84-5.33,2.77-2.02,4.64-2.02,3.35,.67,4.57,2.02c1.22,1.34,1.84,3.12,1.84,5.33s-.61,3.98-1.84,5.33c-1.22,1.34-2.75,2.02-4.57,2.02s-3.42-.67-4.64-2.02Zm15.95-11.45H57.96v12.31H17.78v-12.31Z"/><path class="cls-1" d="M40.1,35.57v27.86c3.02-.14,5.2-.91,6.52-2.3,1.32-1.39,1.98-3.17,1.98-5.33,0-1.82-.46-3.34-1.37-4.54-.91-1.2-2.09-1.99-3.53-2.38v-13.03c2.83,.53,5.36,1.68,7.6,3.46s3.98,4.03,5.26,6.77c1.27,2.74,1.91,5.79,1.91,9.14,0,3.94-.83,7.43-2.48,10.48-1.66,3.05-4.04,5.44-7.16,7.16-3.12,1.73-6.77,2.59-10.94,2.59s-7.88-.85-10.98-2.56c-3.1-1.7-5.47-4.09-7.13-7.16-1.66-3.07-2.48-6.58-2.48-10.51s.82-7.49,2.45-10.51c1.63-3.03,3.92-5.37,6.88-7.02,2.95-1.66,6.35-2.48,10.19-2.48,1.01,0,2.11,.12,3.31,.36Zm-11.12,14.22c-1.32,1.46-1.98,3.28-1.98,5.44s.67,4.13,2.02,5.62c1.34,1.49,3.31,2.33,5.9,2.52v-15.7c-2.64-.05-4.62,.66-5.94,2.12Z"/><path class="cls-1" d="M21.1,6.3c2.54-3.05,5.9-4.96,10.08-5.72V12.1c-1.63,.34-2.92,1.09-3.85,2.27-.94,1.18-1.4,2.65-1.4,4.43,0,1.39,.3,2.45,.9,3.17,.6,.72,1.45,1.08,2.56,1.08,1.25,0,2.18-.66,2.81-1.98,.62-1.32,1.25-3.39,1.87-6.23,.72-3.07,1.45-5.59,2.2-7.56,.74-1.97,1.96-3.67,3.64-5.11,1.68-1.44,3.94-2.16,6.77-2.16,2.3,0,4.34,.62,6.12,1.87,1.78,1.25,3.17,3.05,4.18,5.4,1.01,2.35,1.51,5.14,1.51,8.35,0,5.42-1.2,9.77-3.6,13.03-2.4,3.26-5.83,5.26-10.3,5.98v-11.88c1.73-.19,3.05-.92,3.96-2.2,.91-1.27,1.37-2.92,1.37-4.93,0-1.39-.32-2.45-.97-3.17-.65-.72-1.5-1.08-2.56-1.08-1.39,0-2.39,.66-2.99,1.98-.6,1.32-1.24,3.47-1.91,6.44-.62,2.98-1.3,5.43-2.02,7.34-.72,1.92-1.88,3.58-3.49,4.97-1.61,1.39-3.8,2.09-6.59,2.09-3.6,0-6.52-1.37-8.75-4.1-2.23-2.74-3.35-6.6-3.35-11.59s1.27-9.16,3.82-12.21Z"/></g></g></svg>